<svg width="20" height="22" viewBox="0 0 20 22" fill="none" xmlns="http://www.w3.org/2000/svg">
<path d="M19.9995 1.81727V19.2212C19.9873 19.2515 19.9697 19.2803 19.9639 19.3117C19.8672 19.8124 19.6265 20.2195 19.2554 20.5485C18.9702 20.8014 18.6309 20.9238 18.2808 21.0271H1.71871C1.6899 21.0143 1.66256 20.9958 1.63277 20.9896C1.15622 20.8878 0.769024 20.6349 0.455555 20.2452C0.214839 19.9455 0.0981421 19.5887 0 19.2212V1.81727C0.00830058 1.80699 0.0224604 1.79825 0.0239252 1.78694C0.186519 0.734122 1.10593 -0.00511408 2.19917 2.66444e-05C7.39972 0.0252162 12.5998 0.0113362 17.8003 0.0113362C17.898 0.0113362 17.9957 0.00876587 18.0933 0.0144207C18.6534 0.0493776 19.1153 0.296132 19.4932 0.729495C19.7647 1.04051 19.8975 1.42041 20 1.81727H19.9995ZM11.0022 8.42413H9.01638V11.5795H11.0051V18.9127H14.0011V11.5744H16.9859V8.42002H14.0246C14.0119 8.3794 14.0006 8.36038 14.0006 8.34136C14.0006 7.65765 13.9801 6.9729 14.0075 6.29022C14.0348 5.61061 14.4059 5.27081 15.0573 5.2667C15.5519 5.26361 16.0465 5.26618 16.5411 5.26618C16.6886 5.26618 16.836 5.26618 16.9849 5.26618V2.1509C15.9933 2.1509 15.0055 2.06968 14.0343 2.1689C12.382 2.33854 11.07 3.89053 11.0144 5.6286C10.988 6.44855 11.0046 7.26952 11.0022 8.08998C11.0022 8.19125 11.0022 8.29253 11.0022 8.42464V8.42413Z" fill="#8DAF3E"/>
</svg>
