<svg width="21" height="21" viewBox="0 0 21 21" fill="none" xmlns="http://www.w3.org/2000/svg">
<path d="M0 18.6191C0 13.2055 0 7.79197 0 2.3784C0.0125852 2.34005 0.0293655 2.3023 0.0365571 2.26275C0.237321 1.1895 0.873175 0.490781 1.88718 0.122845C2.0454 0.0653176 2.215 0.0401494 2.37861 0C7.79265 0 13.2067 0 18.6207 0C18.6453 0.0107864 18.6693 0.0263667 18.695 0.0311607C20.0758 0.275652 20.9969 1.34231 20.9975 2.72596C21.0011 7.90703 21.0017 13.0875 20.9927 18.2686C20.9927 18.5706 20.9448 18.8864 20.8501 19.1722C20.4798 20.291 19.4514 20.9969 18.2288 20.9975C13.5399 20.9987 8.85041 20.9981 4.16151 20.9975C3.64192 20.9975 3.12233 21.0053 2.60334 20.9933C1.45869 20.9664 0.415912 20.1532 0.104278 19.0548C0.0635254 18.9109 0.0341599 18.7641 0 18.6191ZM16.7863 8.89997C16.8055 8.97907 16.8198 9.04499 16.8372 9.11031C17.1261 10.1907 17.1273 11.2742 16.8198 12.3474C15.8148 15.8584 12.086 17.788 8.49802 16.7063C7.30123 16.3456 6.31658 15.6517 5.49854 14.7186C4.4318 13.5016 3.93798 12.073 4.00749 10.4616C4.03027 9.94086 4.13634 9.42371 4.20466 8.90477H2.33666C2.33666 8.98866 2.33666 9.05638 2.33666 9.12349C2.33666 11.9525 2.33666 14.7816 2.33666 17.61C2.33666 18.2656 2.64709 18.5766 3.30212 18.5766C8.0857 18.5766 12.8693 18.5766 17.6529 18.5766C18.3031 18.5766 18.6195 18.2596 18.6195 17.6076C18.6195 14.7786 18.6195 11.9495 18.6195 9.12109C18.6195 9.04859 18.6195 8.97548 18.6195 8.89937H16.7851L16.7863 8.89997ZM10.5135 14.5443C11.6431 14.5413 12.623 14.1637 13.453 13.3925C14.808 12.1335 15.1436 10.0469 14.2315 8.49788C12.9172 6.2651 10.0005 5.68263 7.9227 7.23767C6.50716 8.29713 5.93363 10.1674 6.52514 11.7943C7.12563 13.4458 8.72156 14.5472 10.5129 14.5443H10.5135ZM16.4812 6.47963C16.8636 6.47963 17.2459 6.48262 17.6283 6.47903C18.2294 6.47363 18.6159 6.09132 18.6195 5.49267C18.6237 4.76878 18.6243 4.0455 18.6195 3.32161C18.6159 2.73914 18.2228 2.34304 17.6421 2.33885C16.8708 2.33346 16.0989 2.33286 15.3276 2.33885C14.7571 2.34304 14.3621 2.73735 14.3573 3.30783C14.3507 4.03831 14.3513 4.76878 14.3573 5.49926C14.3615 6.08772 14.7481 6.47184 15.3354 6.47843C15.7177 6.48262 16.1001 6.47903 16.4824 6.47903L16.4812 6.47963Z" fill="#8DAF3E"/>
</svg>
