<svg width="21" height="21" viewBox="0 0 21 21" fill="none" xmlns="http://www.w3.org/2000/svg">
<path d="M0 18.4578C0 13.1536 0 7.84883 0 2.54464C0.0142417 2.48656 0.03177 2.42849 0.0421775 2.36986C0.279357 1.01437 1.45649 0.00568687 2.8363 0.00404318C7.94744 -0.000887893 13.0591 -0.00198369 18.1703 0.00459108C19.7204 0.00678266 20.9929 1.27626 20.9951 2.82681C21.0022 7.94526 21.0011 13.0637 20.9951 18.1816C20.9934 19.4281 20.146 20.5288 18.9497 20.8789C18.787 20.9266 18.62 20.96 18.4551 21H2.5427C2.50435 20.9879 2.46656 20.9715 2.42712 20.9644C1.23465 20.7414 0.463404 20.045 0.102431 18.8911C0.0580625 18.7503 0.0334133 18.6024 0 18.4578ZM11.1847 9.28268C11.1847 9.10132 11.1885 8.91997 11.1836 8.73862C11.1759 8.42193 11.0297 8.27564 10.7136 8.274C10.1056 8.27071 9.4976 8.27126 8.88958 8.274C8.54833 8.27564 8.4081 8.41974 8.4081 8.76546C8.40756 11.3685 8.40756 13.9721 8.4081 16.5752C8.4081 16.9132 8.55819 17.0623 8.89616 17.0634C9.46309 17.065 10.0306 17.0634 10.5975 17.0634C11.0582 17.0634 11.1754 16.945 11.1754 16.4782C11.1754 15.1665 11.1732 13.8543 11.1765 12.5427C11.1776 12.0419 11.286 11.5658 11.5632 11.1411C11.9006 10.6239 12.3969 10.4639 12.9857 10.5428C13.5242 10.6152 13.8862 10.9324 14.0128 11.443C14.1179 11.8682 14.1656 12.3169 14.1722 12.7558C14.1913 14.0198 14.1766 15.2838 14.1766 16.5478C14.1766 16.9198 14.3157 17.059 14.681 17.0601C15.2891 17.0612 15.8971 17.0612 16.5051 17.0601C16.8721 17.0595 17.0178 16.916 17.0178 16.5527C17.0172 15.1178 17.0342 13.6828 17.0041 12.2484C16.9915 11.6447 16.929 11.0316 16.7998 10.4426C16.5653 9.37308 15.9732 8.57151 14.8602 8.27838C14.5337 8.19236 14.1875 8.14798 13.8495 8.14196C12.8072 8.12333 11.8661 8.36495 11.1836 9.28268H11.1847ZM4.387 12.6528C4.387 13.9508 4.38646 15.2493 4.387 16.5472C4.387 16.8963 4.55297 17.0617 4.90244 17.0628C5.4765 17.065 6.05 17.0645 6.62405 17.0628C6.98776 17.0617 7.15757 16.9028 7.15757 16.5423C7.15976 13.9595 7.15976 11.3773 7.15757 8.7945C7.15757 8.42905 6.99598 8.27181 6.62898 8.26907C6.06205 8.26578 5.49512 8.26578 4.92764 8.26907C4.53654 8.27126 4.38591 8.42632 4.38536 8.81971C4.38481 10.0974 4.38536 11.3751 4.38536 12.6528H4.387ZM7.55689 5.73559C7.5651 4.75979 6.77688 3.95164 5.8046 3.93959C4.80768 3.92699 3.98988 4.72198 3.98111 5.71094C3.9729 6.6966 4.76715 7.50694 5.74873 7.51407C6.75387 7.52119 7.54867 6.73934 7.55689 5.73559Z" fill="#8DAF3E"/>
</svg>
