<svg width="152" height="76" viewBox="0 0 152 76" fill="none" xmlns="http://www.w3.org/2000/svg">
<path d="M2.61749 75.8213C3.70713 75.8213 4.5902 74.9428 4.5902 73.8589V62.3981H46.5705V72.9489C46.5705 74.0328 47.4535 74.9113 48.5432 74.9113C49.6328 74.9113 50.5159 74.0328 50.5159 72.9489V62.3981H149.41C150.595 62.3981 151.554 61.4433 151.554 60.2654C151.554 59.0876 150.595 58.1328 149.41 58.1328H3.2726C1.82147 58.1328 0.644775 59.3033 0.644775 60.7469V73.8596C0.644775 74.9436 1.52785 75.8213 2.61749 75.8213Z" fill="#8DAF3E"/>
<path d="M149.804 51.7544C149.236 51.7544 148.67 51.5372 148.241 51.1042C138.558 41.3386 127.25 33.7526 114.631 28.556C108.566 26.0587 102.219 24.1382 95.7667 22.848C89.3749 21.5703 82.8238 20.8996 76.2955 20.8548C69.768 20.8108 63.2073 21.3905 56.7986 22.5809C50.3286 23.7822 43.956 25.6154 37.8564 28.0299C25.1673 33.0517 13.7552 40.4822 3.93812 50.1142C3.07497 50.9611 1.68433 50.9515 0.832978 50.0929C-0.0183723 49.2343 -0.00878173 47.8509 0.854373 47.0041C11.092 36.9596 22.9954 29.2099 36.2334 23.9708C42.5964 21.4522 49.2449 19.5397 55.9937 18.287C62.6776 17.046 69.5179 16.4406 76.3273 16.4868C83.1358 16.5338 89.9673 17.2332 96.6335 18.5659C103.364 19.9118 109.985 21.9153 116.313 24.5205C129.477 29.9409 141.271 37.8534 151.369 48.0373C152.22 48.896 152.21 50.2793 151.347 51.1262C150.919 51.546 150.362 51.7551 149.805 51.7551L149.804 51.7544Z" fill="#8DAF3E"/>
<path d="M74.187 10.1054C76.9922 10.1054 79.2663 7.84321 79.2663 5.05269C79.2663 2.26217 76.9922 0 74.187 0C71.3818 0 69.1077 2.26217 69.1077 5.05269C69.1077 7.84321 71.3818 10.1054 74.187 10.1054Z" fill="#8DAF3E"/>
</svg>
