<svg width="138" height="93" viewBox="0 0 138 93" fill="none" xmlns="http://www.w3.org/2000/svg">
<g clip-path="url(#clip0_2003_1363)">
<path d="M2.37646 68.4633C3.36574 68.4633 4.16748 67.6702 4.16748 66.6915V56.3433H42.2812V65.8698C42.2812 66.8485 43.0829 67.6417 44.0722 67.6417C45.0614 67.6417 45.8632 66.8485 45.8632 65.8698V56.3433H135.649C136.724 56.3433 137.595 55.4813 137.595 54.4178C137.595 53.3543 136.724 52.4922 135.649 52.4922H2.97124C1.65376 52.4922 0.585449 53.5491 0.585449 54.8524V66.6921C0.585449 67.6708 1.38719 68.464 2.37646 68.464V68.4633Z" fill="#8DAF3E"/>
<path d="M136.006 46.7285C135.491 46.7285 134.977 46.5324 134.587 46.1415C125.796 37.324 115.53 30.4745 104.073 25.7825C98.5661 23.5276 92.804 21.7935 86.946 20.6286C81.1429 19.475 75.1952 18.8694 69.2682 18.8289C63.3419 18.7892 57.3855 19.3127 51.5671 20.3874C45.693 21.4721 39.9074 23.1274 34.3695 25.3074C22.8492 29.8417 12.4882 36.5507 3.57533 45.2476C2.79167 46.0123 1.52912 46.0036 0.756186 45.2284C-0.0167508 44.4531 -0.00804353 43.2041 0.77561 42.4394C10.0703 33.3701 20.8773 26.3729 32.896 21.6424C38.6729 19.3683 44.7091 17.6415 50.8363 16.5104C56.9046 15.39 63.1149 14.8433 69.297 14.885C75.4785 14.9274 81.6808 15.5589 87.733 16.7622C93.8435 17.9775 99.8548 19.7864 105.6 22.1387C117.551 27.0328 128.259 34.1772 137.427 43.3724C138.2 44.1476 138.191 45.3967 137.407 46.1613C137.019 46.5404 136.513 46.7292 136.007 46.7292L136.006 46.7285Z" fill="#8DAF3E"/>
<path d="M67.3542 9.12427C69.901 9.12427 71.9657 7.08173 71.9657 4.56214C71.9657 2.04254 69.901 0 67.3542 0C64.8073 0 62.7427 2.04254 62.7427 4.56214C62.7427 7.08173 64.8073 9.12427 67.3542 9.12427Z" fill="#8DAF3E"/>
<path d="M8.33802 80.0973C8.51083 80.1881 8.61264 80.3239 8.64345 80.5055C8.67426 80.6871 8.62804 80.858 8.50614 81.019C8.41438 81.1396 8.29717 81.2079 8.15517 81.2231C8.01251 81.2384 7.86984 81.2105 7.72785 81.1403C7.39161 80.9389 7.03059 80.7805 6.64346 80.6645C6.25632 80.5486 5.84909 80.4909 5.42176 80.4909C4.82096 80.4909 4.27106 80.5916 3.77274 80.7931C3.27375 80.9945 2.84106 81.2841 2.47469 81.6618C2.10831 82.0395 1.82298 82.4854 1.61937 82.9989C1.41575 83.5125 1.31394 84.077 1.31394 84.6913C1.31394 85.3559 1.42111 85.9502 1.63477 86.4737C1.84844 86.9978 2.14113 87.4431 2.51287 87.8109C2.8846 88.1786 3.31661 88.4583 3.81092 88.6491C4.30455 88.8406 4.84172 88.936 5.42176 88.936C5.83904 88.936 6.24091 88.881 6.62805 88.7697C7.01519 88.659 7.37621 88.498 7.71244 88.2866C7.85511 88.2164 7.99978 88.1912 8.1478 88.2111C8.29516 88.2316 8.41505 88.3019 8.50681 88.4225C8.63876 88.5835 8.68765 88.7525 8.65215 88.9287C8.61666 89.105 8.51686 89.2382 8.3541 89.3289C8.09958 89.48 7.80956 89.6159 7.48337 89.7365C7.15719 89.857 6.81894 89.9531 6.46797 90.0234C6.117 90.0936 5.76804 90.1294 5.42176 90.1294C4.68901 90.1294 3.99645 90.0035 3.34475 89.7517C2.69304 89.4999 2.11568 89.1401 1.61133 88.6716C1.10765 88.2031 0.712474 87.6346 0.427814 86.964C0.142484 86.2941 0.000488281 85.5368 0.000488281 84.6906C0.000488281 83.9153 0.137795 83.1977 0.413078 82.5378C0.687692 81.8784 1.06947 81.3066 1.55842 80.8229C2.04736 80.3398 2.62003 79.9641 3.27643 79.6971C3.93282 79.4301 4.64815 79.2969 5.42176 79.2969C5.95089 79.2969 6.46529 79.3651 6.96429 79.501C7.46328 79.6368 7.92074 79.8349 8.33802 80.0973Z" fill="#8DAF3E"/>
<path d="M10.8877 89.9759C10.7142 89.9759 10.5696 89.9156 10.4523 89.7943C10.3351 89.6737 10.2769 89.5273 10.2769 89.3563V82.7844C10.2769 82.6029 10.3351 82.4545 10.4523 82.3385C10.5696 82.2225 10.7142 82.1649 10.8877 82.1649C11.0712 82.1649 11.2186 82.2232 11.3304 82.3385C11.4423 82.4545 11.4986 82.6029 11.4986 82.7844V84.7637L11.315 84.4463C11.376 84.1342 11.4852 83.8294 11.6432 83.5325C11.8013 83.2357 12.0022 82.9686 12.2467 82.7321C12.4912 82.4955 12.7712 82.3093 13.0866 82.1728C13.4021 82.037 13.7484 81.9688 14.1248 81.9688C14.3485 81.9688 14.5548 82.0218 14.743 82.1271C14.9312 82.2331 15.0257 82.3816 15.0257 82.5731C15.0257 82.7844 14.9694 82.9435 14.8575 83.0488C14.7457 83.1548 14.6184 83.2072 14.4758 83.2072C14.3431 83.2072 14.2159 83.1767 14.094 83.1164C13.9721 83.0561 13.8194 83.0256 13.6358 83.0256C13.3813 83.0256 13.1295 83.0959 12.8797 83.237C12.6298 83.3781 12.4008 83.5716 12.1925 83.8188C11.9835 84.0659 11.816 84.3476 11.6888 84.665C11.5615 84.9823 11.4979 85.3223 11.4979 85.6847V89.3556C11.4979 89.5273 11.4389 89.673 11.3224 89.7936C11.2052 89.9142 11.0598 89.9752 10.887 89.9752L10.8877 89.9759Z" fill="white"/>
<path d="M22.9068 82.0894C23.0796 82.0894 23.225 82.1477 23.3422 82.263C23.4594 82.3789 23.5176 82.522 23.5176 82.6937V89.3563C23.5176 89.5279 23.4587 89.6737 23.3422 89.7943C23.225 89.9149 23.0796 89.9759 22.9068 89.9759C22.7233 89.9759 22.5732 89.9156 22.456 89.7943C22.3388 89.6737 22.2805 89.5273 22.2805 89.3563V87.9211L22.5706 87.8906C22.5706 88.1225 22.4942 88.3663 22.3415 88.6234C22.1888 88.8805 21.9798 89.1224 21.7152 89.349C21.4507 89.5756 21.1399 89.7618 20.7836 89.9083C20.4272 90.054 20.0401 90.1276 19.6228 90.1276C18.9303 90.1276 18.3067 89.9487 17.7521 89.5909C17.1968 89.2337 16.7622 88.7474 16.4467 88.1331C16.1312 87.5189 15.9731 86.8185 15.9731 86.0333C15.9731 85.2481 16.1332 84.5351 16.4541 83.9255C16.7749 83.3165 17.2076 82.8374 17.7521 82.4902C18.2966 82.143 18.9102 81.9688 19.592 81.9688C20.0294 81.9688 20.4373 82.0397 20.8137 82.1801C21.1901 82.3213 21.5183 82.5128 21.799 82.754C22.0789 82.9958 22.2953 83.2628 22.448 83.5544C22.6007 83.8466 22.6771 84.1388 22.6771 84.4304L22.2799 84.3396V82.693C22.2799 82.522 22.3382 82.3783 22.4554 82.2623C22.5726 82.1463 22.7226 82.0887 22.9061 82.0887L22.9068 82.0894ZM19.7608 89.0091C20.2698 89.0091 20.7179 88.8786 21.1044 88.6162C21.4909 88.3544 21.7963 87.9993 22.0207 87.5513C22.2444 87.1034 22.3569 86.5972 22.3569 86.0333C22.3569 85.4694 22.245 84.981 22.0207 84.5377C21.797 84.0944 21.4909 83.7419 21.1044 83.4802C20.7173 83.2185 20.2698 83.0873 19.7608 83.0873C19.2518 83.0873 18.8164 83.2158 18.4246 83.4722C18.0327 83.7293 17.7246 84.0792 17.5009 84.5225C17.2766 84.9658 17.1647 85.4694 17.1647 86.0333C17.1647 86.5972 17.2739 87.1034 17.4929 87.5513C17.7119 87.9999 18.0173 88.3544 18.4092 88.6162C18.801 88.8786 19.2518 89.0091 19.7608 89.0091Z" fill="white"/>
<path d="M29.5033 82.2883C29.666 82.2883 29.8033 82.3413 29.9159 82.4467C30.0277 82.5527 30.084 82.6859 30.084 82.8469C30.084 83.0079 30.0277 83.1418 29.9159 83.2471C29.804 83.3532 29.666 83.4055 29.5033 83.4055H25.6701C25.5073 83.4055 25.3693 83.3525 25.2575 83.2471C25.1456 83.1411 25.0894 83.0079 25.0894 82.8469C25.0894 82.676 25.1449 82.5401 25.2575 82.4387C25.3693 82.338 25.5066 82.2877 25.6701 82.2877H29.5033V82.2883ZM29.0759 78.8288C29.2487 78.8288 29.4296 78.8513 29.6178 78.897C29.806 78.9428 29.9688 79.013 30.1067 79.1084C30.2441 79.2045 30.313 79.3377 30.313 79.5086C30.313 79.6697 30.2621 79.8035 30.1603 79.9089C30.0585 80.0149 29.9359 80.0672 29.794 80.0672C29.7022 80.0672 29.5749 80.042 29.4122 79.9917C29.2494 79.9413 29.0813 79.9161 28.9085 79.9161C28.6741 79.9161 28.4832 79.9665 28.3358 80.0672C28.1878 80.1679 28.0813 80.3018 28.015 80.4674C27.9487 80.6338 27.9159 80.8173 27.9159 81.0187V89.3585C27.9159 89.5301 27.8569 89.6759 27.7404 89.7965C27.6232 89.9171 27.4778 89.978 27.305 89.978C27.1215 89.978 26.9741 89.9177 26.8623 89.7965C26.7504 89.6759 26.6942 89.5294 26.6942 89.3585V81.0187C26.6942 80.3541 26.9052 79.8227 27.3278 79.4251C27.7504 79.0276 28.3331 78.8281 29.0766 78.8281L29.0759 78.8288Z" fill="white"/>
<path d="M31.3667 82.211H34.9554C35.1181 82.211 35.2534 82.2667 35.3599 82.3774C35.4671 82.488 35.52 82.6245 35.52 82.7855C35.52 82.9366 35.4664 83.0651 35.3599 83.1705C35.2528 83.2765 35.1181 83.3289 34.9554 83.3289H31.3667C31.2139 83.3289 31.0786 83.2739 30.9621 83.1626C30.8449 83.0519 30.7866 82.9207 30.7866 82.7696C30.7866 82.6086 30.8449 82.4748 30.9621 82.3694C31.0793 82.2634 31.2139 82.211 31.3667 82.211ZM32.9701 80.1562C33.1429 80.1562 33.2856 80.2165 33.3975 80.3378C33.5093 80.4584 33.5656 80.6048 33.5656 80.7758V88.058C33.5656 88.2998 33.6011 88.4807 33.6727 88.602C33.7437 88.7226 33.8382 88.8061 33.9554 88.8511C34.0726 88.8969 34.1871 88.9194 34.299 88.9194C34.4008 88.9194 34.4899 88.9022 34.5662 88.8664C34.6426 88.8313 34.7317 88.8134 34.8335 88.8134C34.9353 88.8134 35.0291 88.8611 35.1161 88.9572C35.2025 89.0532 35.2461 89.1758 35.2461 89.3276C35.2461 89.5085 35.1389 89.6622 34.9252 89.7881C34.7116 89.914 34.4718 89.9769 34.2072 89.9769C34.0646 89.9769 33.8891 89.967 33.6801 89.9465C33.4711 89.9266 33.2648 89.861 33.0619 89.7503C32.8583 89.6397 32.6875 89.4555 32.5502 89.199C32.4129 88.9419 32.3439 88.5821 32.3439 88.119V80.7765C32.3439 80.6055 32.4048 80.4591 32.5274 80.3385C32.6493 80.2179 32.7973 80.1569 32.9701 80.1569V80.1562Z" fill="white"/>
<path d="M38.0551 89.9739C37.8615 89.9739 37.7061 89.9136 37.5895 89.7923C37.4723 89.6717 37.4141 89.5253 37.4141 89.3543V80.018C37.4141 79.847 37.475 79.7006 37.5976 79.58C37.7195 79.4594 37.8675 79.3984 38.0403 79.3984H43.4006C43.5734 79.3984 43.7215 79.4567 43.8434 79.572C43.9653 79.688 44.0269 79.8311 44.0269 80.0027C44.0269 80.1538 43.9659 80.2877 43.8434 80.403C43.7215 80.5189 43.5734 80.5766 43.4006 80.5766H38.5902L38.682 80.456V84.1421L38.6056 83.9758H42.7134C42.8862 83.9758 43.0343 84.0341 43.1562 84.1494C43.2781 84.2654 43.3397 84.4085 43.3397 84.5801C43.3397 84.7411 43.2787 84.8776 43.1562 84.9883C43.0343 85.0996 42.8862 85.1546 42.7134 85.1546H38.5748L38.682 85.034V89.355C38.682 89.5266 38.621 89.6724 38.4985 89.793C38.3765 89.9135 38.2285 89.9745 38.0557 89.9745L38.0551 89.9739Z" fill="#8DAF3E"/>
<path d="M53.3262 86.0478C53.3262 86.8337 53.1507 87.5334 52.7991 88.1477C52.4481 88.7619 51.9745 89.2456 51.3791 89.5982C50.7837 89.9507 50.1139 90.1269 49.3711 90.1269C48.6283 90.1269 47.9558 89.9507 47.355 89.5982C46.7542 89.2456 46.2787 88.7619 45.927 88.1477C45.5761 87.5334 45.3999 86.833 45.3999 86.0478C45.3999 85.2626 45.5754 84.5622 45.927 83.948C46.278 83.3337 46.7542 82.85 47.355 82.4975C47.9558 82.145 48.6276 81.9688 49.3711 81.9688C50.1145 81.9688 50.7837 82.145 51.3791 82.4975C51.9745 82.85 52.4481 83.3337 52.7991 83.948C53.15 84.5622 53.3262 85.2626 53.3262 86.0478ZM52.0891 86.0478C52.0891 85.4641 51.9692 84.9525 51.7301 84.5145C51.491 84.0765 51.1648 83.7287 50.7529 83.4722C50.3403 83.2151 49.8794 83.0873 49.3711 83.0873C48.8627 83.0873 48.3858 83.2158 47.9739 83.4722C47.5613 83.7293 47.2331 84.0765 46.9886 84.5145C46.7442 84.9525 46.6223 85.4641 46.6223 86.0478C46.6223 86.6316 46.7442 87.1306 46.9886 87.5739C47.2331 88.0171 47.5613 88.367 47.9739 88.6241C48.3865 88.8812 48.852 89.0091 49.3711 89.0091C49.8902 89.0091 50.3409 88.8805 50.7529 88.6241C51.1654 88.367 51.491 88.0178 51.7301 87.5739C51.9692 87.1306 52.0891 86.6223 52.0891 86.0478Z" fill="white"/>
<path d="M62.6567 86.0478C62.6567 86.8337 62.4813 87.5334 62.1296 88.1477C61.7787 88.7619 61.3051 89.2456 60.7097 89.5982C60.1142 89.9507 59.4444 90.1269 58.7016 90.1269C57.9589 90.1269 57.2864 89.9507 56.6856 89.5982C56.0848 89.2456 55.6092 88.7619 55.2576 88.1477C54.9066 87.5334 54.7305 86.833 54.7305 86.0478C54.7305 85.2626 54.906 84.5622 55.2576 83.948C55.6086 83.3337 56.0848 82.85 56.6856 82.4975C57.2864 82.145 57.9582 81.9688 58.7016 81.9688C59.4451 81.9688 60.1142 82.145 60.7097 82.4975C61.3051 82.85 61.7787 83.3337 62.1296 83.948C62.4806 84.5622 62.6567 85.2626 62.6567 86.0478ZM61.4197 86.0478C61.4197 85.4641 61.2998 84.9525 61.0606 84.5145C60.8215 84.0765 60.4953 83.7287 60.0834 83.4722C59.6708 83.2151 59.21 83.0873 58.7016 83.0873C58.1933 83.0873 57.7164 83.2158 57.3045 83.4722C56.8919 83.7293 56.5637 84.0765 56.3192 84.5145C56.0747 84.9525 55.9528 85.4641 55.9528 86.0478C55.9528 86.6316 56.0747 87.1306 56.3192 87.5739C56.5637 88.0171 56.8919 88.367 57.3045 88.6241C57.7164 88.8812 58.1826 89.0091 58.7016 89.0091C59.2207 89.0091 59.6715 88.8805 60.0834 88.6241C60.4953 88.367 60.8215 88.0178 61.0606 87.5739C61.2998 87.1306 61.4197 86.6223 61.4197 86.0478Z" fill="white"/>
<path d="M70.9947 78.7975C71.1675 78.7975 71.3128 78.8558 71.4301 78.9711C71.5473 79.0871 71.6055 79.2355 71.6055 79.4171V89.3577C71.6055 89.5293 71.5466 89.6751 71.4301 89.7957C71.3128 89.9163 71.1675 89.9773 70.9947 89.9773C70.8112 89.9773 70.6611 89.917 70.5439 89.7957C70.4267 89.6751 70.3684 89.5287 70.3684 89.3577V87.9225L70.6585 87.8317C70.6585 88.0636 70.5848 88.3128 70.4368 88.5798C70.2887 88.8468 70.0804 89.0986 69.8105 89.3352C69.5406 89.5717 69.2278 89.7632 68.8715 89.909C68.5151 90.0548 68.128 90.1283 67.7107 90.1283C67.0182 90.1283 66.3973 89.9521 65.8474 89.5996C65.2975 89.2471 64.8621 88.7633 64.5419 88.1491C64.2211 87.5348 64.061 86.8345 64.061 86.0493C64.061 85.264 64.2211 84.5484 64.5419 83.9342C64.8628 83.3199 65.2955 82.8389 65.84 82.4916C66.3845 82.1444 66.9981 81.9702 67.6799 81.9702C68.1072 81.9702 68.5071 82.0411 68.8788 82.1815C69.2506 82.3227 69.5788 82.5142 69.8641 82.7554C70.1487 82.9972 70.3704 83.2643 70.5285 83.5558C70.6859 83.848 70.765 84.1402 70.765 84.4318L70.3678 84.341V79.4158C70.3678 79.2448 70.426 79.0984 70.5433 78.9778C70.6605 78.8572 70.8105 78.7969 70.994 78.7969L70.9947 78.7975ZM67.8487 89.0105C68.3577 89.0105 68.8058 88.882 69.1923 88.6255C69.5794 88.3684 69.8842 88.0166 70.1086 87.568C70.3323 87.12 70.4448 86.6138 70.4448 86.0499C70.4448 85.486 70.3329 84.9798 70.1086 84.5319C69.8842 84.0839 69.5788 83.7314 69.1923 83.4743C68.8052 83.2172 68.3577 83.0893 67.8487 83.0893C67.3397 83.0893 66.9043 83.2179 66.5125 83.4743C66.1206 83.7314 65.8125 84.0839 65.5888 84.5319C65.3644 84.9804 65.2526 85.486 65.2526 86.0499C65.2526 86.6138 65.3644 87.1048 65.5888 87.5534C65.8125 88.002 66.1206 88.3565 66.5125 88.6182C66.9043 88.8806 67.3497 89.0112 67.8487 89.0112V89.0105Z" fill="white"/>
<path d="M85.9606 80.0973C86.1334 80.1881 86.2352 80.3239 86.266 80.5055C86.2968 80.6871 86.2506 80.858 86.1287 81.019C86.0369 81.1396 85.9197 81.2079 85.7777 81.2231C85.6351 81.2384 85.4924 81.2105 85.3504 81.1403C85.0142 80.9389 84.6531 80.7805 84.266 80.6645C83.8789 80.5486 83.4716 80.4909 83.0443 80.4909C82.4435 80.4909 81.8936 80.5916 81.3953 80.7931C80.8963 80.9945 80.4636 81.2841 80.0972 81.6618C79.7309 82.0395 79.4455 82.4854 79.2419 82.9989C79.0383 83.5125 78.9365 84.077 78.9365 84.6913C78.9365 85.3559 79.0437 85.9502 79.2573 86.4737C79.471 86.9978 79.7637 87.4431 80.1354 87.8109C80.5072 88.1786 80.9398 88.4583 81.4335 88.6491C81.9271 88.8406 82.4643 88.936 83.0443 88.936C83.4616 88.936 83.8635 88.881 84.2506 88.7697C84.6371 88.659 84.9988 88.498 85.335 88.2866C85.4777 88.2164 85.6223 88.1912 85.7704 88.2111C85.9177 88.2316 86.0376 88.3019 86.1294 88.4225C86.2613 88.5835 86.3102 88.7525 86.2747 88.9287C86.2392 89.105 86.1394 89.2382 85.9767 89.3289C85.7221 89.48 85.4321 89.6159 85.1059 89.7365C84.7797 89.857 84.4415 89.9531 84.0905 90.0234C83.7396 90.0936 83.3906 90.1294 83.0443 90.1294C82.3116 90.1294 81.619 90.0035 80.9673 89.7517C80.3156 89.4999 79.7382 89.1401 79.2339 88.6716C78.7302 88.2031 78.335 87.6346 78.0504 86.964C77.765 86.2941 77.623 85.5368 77.623 84.6906C77.623 83.9153 77.7603 83.1977 78.0356 82.5378C78.3102 81.8784 78.692 81.3066 79.181 80.8229C79.6699 80.3398 80.2426 79.9641 80.899 79.6971C81.5554 79.4301 82.2707 79.2969 83.0443 79.2969C83.5734 79.2969 84.0878 79.3651 84.5868 79.501C85.0858 79.6368 85.544 79.8356 85.9612 80.098L85.9606 80.0973Z" fill="white"/>
<path d="M94.4053 82.0894C94.5781 82.0894 94.7235 82.1477 94.8407 82.263C94.9579 82.3789 95.0162 82.522 95.0162 82.6937V89.3563C95.0162 89.5279 94.9572 89.6737 94.8407 89.7943C94.7235 89.9149 94.5781 89.9759 94.4053 89.9759C94.2218 89.9759 94.0718 89.9156 93.9546 89.7943C93.8374 89.6737 93.7791 89.5273 93.7791 89.3563V87.9211L94.0691 87.8906C94.0691 88.1225 93.9928 88.3663 93.84 88.6234C93.6873 88.8805 93.4783 89.1224 93.2138 89.349C92.9492 89.5756 92.6384 89.7618 92.2821 89.9083C91.9258 90.054 91.5386 90.1276 91.1214 90.1276C90.4288 90.1276 89.8052 89.9487 89.2506 89.5909C88.6954 89.2337 88.2607 88.7474 87.9452 88.1331C87.6298 87.5189 87.4717 86.8185 87.4717 86.0333C87.4717 85.2481 87.6318 84.5351 87.9526 83.9255C88.2734 83.3165 88.7061 82.8374 89.2506 82.4902C89.7952 82.143 90.4087 81.9688 91.0906 81.9688C91.5279 81.9688 91.9352 82.0397 92.3122 82.1801C92.6887 82.3213 93.0169 82.5128 93.2975 82.754C93.5775 82.9958 93.7938 83.2628 93.9465 83.5544C94.0992 83.8466 94.1756 84.1388 94.1756 84.4304L93.7784 84.3396V82.693C93.7784 82.522 93.8367 82.3783 93.9539 82.2623C94.0711 82.1463 94.2211 82.0887 94.4047 82.0887L94.4053 82.0894ZM91.2593 89.0091C91.7684 89.0091 92.2165 88.8786 92.6029 88.6162C92.9901 88.3544 93.2948 87.9993 93.5192 87.5513C93.7429 87.1034 93.8554 86.5972 93.8554 86.0333C93.8554 85.4694 93.7436 84.981 93.5192 84.5377C93.2948 84.0944 92.9894 83.7419 92.6029 83.4802C92.2158 83.2185 91.7684 83.0873 91.2593 83.0873C90.7503 83.0873 90.3149 83.2158 89.9231 83.4722C89.5313 83.7293 89.2232 84.0792 88.9995 84.5225C88.7751 84.9658 88.6632 85.4694 88.6632 86.0333C88.6632 86.5972 88.7724 87.1034 88.9914 87.5513C89.2105 87.9999 89.5159 88.3544 89.9077 88.6162C90.2995 88.8786 90.7503 89.0091 91.2593 89.0091Z" fill="white"/>
<path d="M96.9707 82.211H100.559C100.722 82.211 100.857 82.2667 100.964 82.3774C101.071 82.488 101.124 82.6245 101.124 82.7855C101.124 82.9366 101.07 83.0651 100.964 83.1705C100.857 83.2765 100.722 83.3289 100.559 83.3289H96.9707C96.818 83.3289 96.6827 83.2739 96.5661 83.1626C96.4489 83.0519 96.3906 82.9207 96.3906 82.7696C96.3906 82.6086 96.4489 82.4748 96.5661 82.3694C96.6833 82.2634 96.818 82.211 96.9707 82.211ZM98.5741 80.1562C98.7469 80.1562 98.8896 80.2165 99.0015 80.3378C99.1133 80.4584 99.1696 80.6048 99.1696 80.7758V88.058C99.1696 88.2998 99.2051 88.4807 99.2767 88.602C99.3477 88.7226 99.4422 88.8061 99.5594 88.8511C99.6766 88.8969 99.7911 88.9194 99.903 88.9194C100.005 88.9194 100.094 88.9022 100.17 88.8664C100.247 88.8313 100.336 88.8134 100.437 88.8134C100.539 88.8134 100.633 88.8611 100.72 88.9572C100.807 89.0532 100.85 89.1758 100.85 89.3276C100.85 89.5085 100.743 89.6622 100.529 89.7881C100.316 89.914 100.076 89.9769 99.8112 89.9769C99.6686 89.9769 99.4931 89.967 99.2841 89.9465C99.0751 89.9266 98.8695 89.861 98.6659 89.7503C98.4623 89.6397 98.2915 89.4555 98.1542 89.199C98.0169 88.9419 97.9479 88.5821 97.9479 88.119V80.7765C97.9479 80.6055 98.0088 80.4591 98.1314 80.3385C98.2533 80.2179 98.4013 80.1569 98.5741 80.1569V80.1562Z" fill="white"/>
<path d="M106.47 90.1269C105.645 90.1269 104.927 89.956 104.316 89.6134C103.705 89.2708 103.232 88.8004 102.896 88.2007C102.56 87.6017 102.393 86.9092 102.393 86.1234C102.393 85.2474 102.568 84.4993 102.92 83.8798C103.271 83.2602 103.729 82.7871 104.294 82.4598C104.859 82.1324 105.457 81.9688 106.088 81.9688C106.557 81.9688 107.009 82.0542 107.447 82.2258C107.885 82.3975 108.272 82.6486 108.608 82.9812C108.944 83.3139 109.214 83.7068 109.417 84.16C109.621 84.6133 109.727 85.1268 109.738 85.7013C109.738 85.8623 109.677 85.9962 109.555 86.1015C109.433 86.2075 109.29 86.2599 109.127 86.2599H103.095L102.821 85.2176H108.685L108.44 85.429V85.0963C108.409 84.6835 108.275 84.3283 108.036 84.0315C107.796 83.7346 107.506 83.5054 107.165 83.3437C106.824 83.1827 106.465 83.1018 106.088 83.1018C105.783 83.1018 105.48 83.1575 105.18 83.2681C104.88 83.3795 104.61 83.5504 104.37 83.7817C104.131 84.0136 103.938 84.3158 103.79 84.6881C103.642 85.0605 103.569 85.5091 103.569 86.0326C103.569 86.617 103.689 87.1306 103.928 87.5739C104.167 88.0171 104.5 88.367 104.928 88.6241C105.355 88.8812 105.854 89.0091 106.424 89.0091C106.78 89.0091 107.09 88.964 107.356 88.8733C107.62 88.7825 107.847 88.6692 108.036 88.5333C108.224 88.3975 108.384 88.259 108.516 88.1179C108.648 88.0271 108.781 87.982 108.914 87.982C109.056 87.982 109.178 88.0324 109.28 88.1331C109.382 88.2338 109.433 88.3551 109.433 88.4956C109.433 88.6672 109.351 88.8229 109.188 88.964C108.893 89.2761 108.504 89.5485 108.02 89.7797C107.537 90.011 107.02 90.1269 106.47 90.1269H106.47Z" fill="white"/>
<path d="M112.181 89.9759C112.007 89.9759 111.863 89.9156 111.745 89.7943C111.628 89.6737 111.57 89.5273 111.57 89.3563V82.7844C111.57 82.6029 111.628 82.4545 111.745 82.3385C111.863 82.2225 112.007 82.1649 112.181 82.1649C112.364 82.1649 112.512 82.2232 112.623 82.3385C112.735 82.4545 112.792 82.6029 112.792 82.7844V84.7637L112.608 84.4463C112.669 84.1342 112.778 83.8294 112.936 83.5325C113.094 83.2357 113.295 82.9686 113.54 82.7321C113.784 82.4955 114.064 82.3093 114.38 82.1728C114.695 82.037 115.041 81.9688 115.418 81.9688C115.641 81.9688 115.848 82.0218 116.036 82.1271C116.224 82.2331 116.319 82.3816 116.319 82.5731C116.319 82.7844 116.262 82.9435 116.151 83.0488C116.039 83.1548 115.911 83.2072 115.769 83.2072C115.636 83.2072 115.509 83.1767 115.387 83.1164C115.265 83.0561 115.112 83.0256 114.929 83.0256C114.674 83.0256 114.422 83.0959 114.173 83.237C113.923 83.3781 113.694 83.5716 113.485 83.8188C113.276 84.0659 113.108 84.3476 112.982 84.665C112.854 84.9823 112.791 85.3223 112.791 85.6847V89.3556C112.791 89.5273 112.732 89.673 112.615 89.7936C112.498 89.9142 112.353 89.9752 112.18 89.9752L112.181 89.9759Z" fill="white"/>
<path d="M118.243 81.0364C117.988 81.0364 117.8 80.9861 117.678 80.8853C117.556 80.7846 117.494 80.6282 117.494 80.4169V80.2055C117.494 79.9941 117.56 79.8377 117.692 79.737C117.824 79.6363 118.013 79.5859 118.258 79.5859C118.502 79.5859 118.685 79.6363 118.808 79.737C118.93 79.8377 118.991 79.9941 118.991 80.2055V80.4169C118.991 80.6282 118.927 80.7846 118.8 80.8853C118.673 80.9861 118.487 81.0364 118.243 81.0364ZM118.869 89.3602C118.869 89.5319 118.81 89.6776 118.694 89.7982C118.577 89.9188 118.431 89.9798 118.258 89.9798C118.075 89.9798 117.925 89.9195 117.808 89.7982C117.69 89.6776 117.632 89.5312 117.632 89.3602V82.6678C117.632 82.4968 117.69 82.3504 117.808 82.2298C117.925 82.1092 118.075 82.0482 118.258 82.0482C118.431 82.0482 118.577 82.1085 118.694 82.2298C118.811 82.3504 118.869 82.4968 118.869 82.6678V89.3602Z" fill="white"/>
<path d="M124.993 81.9688C125.685 81.9688 126.23 82.1099 126.627 82.3915C127.024 82.6738 127.307 83.0515 127.475 83.5246C127.643 83.9984 127.726 84.5318 127.726 85.1261V89.3563C127.726 89.5279 127.667 89.6737 127.551 89.7943C127.434 89.9149 127.288 89.9759 127.116 89.9759C126.932 89.9759 126.785 89.9156 126.673 89.7943C126.561 89.6737 126.505 89.5273 126.505 89.3563V85.1566C126.505 84.7743 126.446 84.4264 126.329 84.1143C126.212 83.8022 126.016 83.5531 125.741 83.3662C125.467 83.18 125.1 83.0866 124.641 83.0866C124.214 83.0866 123.822 83.18 123.465 83.3662C123.109 83.5524 122.824 83.8022 122.61 84.1143C122.396 84.4264 122.289 84.7743 122.289 85.1566V89.3563C122.289 89.5279 122.23 89.6737 122.114 89.7943C121.996 89.9149 121.851 89.9759 121.678 89.9759C121.505 89.9759 121.36 89.9156 121.243 89.7943C121.126 89.6737 121.067 89.5273 121.067 89.3563V82.7844C121.067 82.6029 121.126 82.4545 121.243 82.3385C121.36 82.2225 121.505 82.1649 121.678 82.1649C121.862 82.1649 122.009 82.2232 122.121 82.3385C122.233 82.4545 122.289 82.6029 122.289 82.7844V83.842L121.984 84.1746C122.035 83.9129 122.152 83.6485 122.335 83.3815C122.518 83.1144 122.747 82.8752 123.022 82.6638C123.296 82.4525 123.602 82.2835 123.938 82.1576C124.274 82.0317 124.625 81.9688 124.992 81.9688H124.993Z" fill="white"/>
<path d="M133.285 81.9688C133.733 81.9688 134.145 82.0423 134.522 82.1881C134.899 82.3345 135.227 82.5227 135.507 82.7546C135.787 82.9865 136.006 83.2284 136.164 83.4802C136.322 83.732 136.4 83.9685 136.4 84.1899L136.095 84.009V82.6943C136.095 82.5234 136.153 82.3796 136.27 82.2636C136.388 82.1477 136.532 82.09 136.706 82.09C136.889 82.09 137.039 82.1483 137.157 82.2636C137.274 82.3796 137.332 82.5227 137.332 82.6943V89.3119C137.332 90.1375 137.157 90.8253 136.805 91.374C136.454 91.9226 135.982 92.3308 135.392 92.5978C134.802 92.8649 134.14 92.9981 133.407 92.9981C133.102 92.9981 132.765 92.9603 132.399 92.8847C132.033 92.8092 131.706 92.7131 131.422 92.5978C131.136 92.4819 130.954 92.3639 130.872 92.2427C130.719 92.1314 130.625 92.0161 130.589 91.8955C130.554 91.7749 130.571 91.6536 130.643 91.533C130.745 91.3919 130.867 91.3216 131.009 91.3216C131.152 91.3216 131.335 91.3667 131.559 91.4575C131.661 91.4879 131.811 91.5376 132.01 91.6085C132.208 91.6788 132.432 91.7417 132.682 91.7974C132.931 91.8524 133.178 91.8802 133.422 91.8802C134.288 91.8802 134.95 91.6563 135.408 91.2077C135.866 90.7591 136.095 90.1673 136.095 89.4325V88.0271L136.263 88.1026C136.202 88.3849 136.079 88.6466 135.897 88.8885C135.713 89.1303 135.487 89.3444 135.217 89.5306C134.947 89.7168 134.649 89.8632 134.323 89.9686C133.997 90.0746 133.662 90.1269 133.315 90.1269C132.603 90.1269 131.964 89.9507 131.399 89.5982C130.834 89.2456 130.386 88.7619 130.055 88.1477C129.725 87.5334 129.559 86.833 129.559 86.0478C129.559 85.2626 129.725 84.547 130.055 83.9328C130.386 83.3185 130.832 82.8374 131.392 82.4902C131.952 82.143 132.583 81.9688 133.285 81.9688ZM133.453 83.0866C132.934 83.0866 132.468 83.2151 132.056 83.4716C131.643 83.7287 131.323 84.0812 131.094 84.5291C130.865 84.9777 130.751 85.4833 130.751 86.0472C130.751 86.6111 130.865 87.1021 131.094 87.5507C131.323 87.9993 131.644 88.3538 132.056 88.6155C132.469 88.8779 132.934 89.0084 133.453 89.0084C133.972 89.0084 134.451 88.8799 134.858 88.6234C135.266 88.3663 135.587 88.0171 135.82 87.5732C136.055 87.1299 136.171 86.6217 136.171 86.0472C136.171 85.4727 136.054 84.9618 135.82 84.5139C135.586 84.0659 135.265 83.7161 134.858 83.4636C134.451 83.2118 133.983 83.0859 133.453 83.0859V83.0866Z" fill="white"/>
</g>
<defs>
<clipPath id="clip0_2003_1363">
<rect width="138" height="93" fill="white"/>
</clipPath>
</defs>
</svg>
