<svg width="217" height="119" viewBox="0 0 217 119" fill="none" xmlns="http://www.w3.org/2000/svg">
<path d="M3.73574 81.5097C5.29135 81.5097 6.55205 80.3049 6.55205 78.8183V63.0998H66.4844V77.5703C66.4844 79.0569 67.7451 80.2616 69.3007 80.2616C70.8563 80.2616 72.117 79.0569 72.117 77.5703V63.0998H213.302C214.992 63.0998 216.363 61.7903 216.363 60.1749C216.363 58.5595 214.992 57.25 213.302 57.25H4.671C2.59932 57.25 0.919434 58.8554 0.919434 60.8352V78.8193C0.919434 80.3059 2.18014 81.5107 3.73574 81.5107V81.5097Z" fill="#2D2D2D"/>
<path d="M213.864 48.4978C213.054 48.4978 212.245 48.1999 211.632 47.606C197.809 34.2125 181.666 23.8083 163.651 16.6813C154.991 13.2562 145.93 10.6222 136.719 8.85273C127.594 7.10041 118.241 6.18047 108.921 6.11907C99.6022 6.05868 90.2359 6.85381 81.0866 8.48636C71.8499 10.134 62.7521 12.6482 54.0441 15.9596C35.9288 22.8471 19.6365 33.0379 5.62133 46.2483C4.38906 47.4098 2.40374 47.3967 1.18833 46.2191C-0.0270866 45.0415 -0.0133947 43.1442 1.21887 41.9827C15.8344 28.2067 32.8281 17.5781 51.727 10.3927C60.8111 6.93836 70.3027 4.31542 79.9375 2.59732C89.4797 0.895329 99.2451 0.0649654 108.966 0.128375C118.687 0.192791 128.439 1.15199 137.956 2.97979C147.565 4.82572 157.017 7.57346 166.051 11.1465C184.844 18.5806 201.682 29.4327 216.098 43.3999C217.313 44.5775 217.299 46.4747 216.067 47.6362C215.456 48.2119 214.661 48.4988 213.866 48.4988L213.864 48.4978Z" fill="#2D2D2D"/>
<path d="M13.1105 99.1768C13.3822 99.3147 13.5423 99.521 13.5907 99.7968C13.6392 100.073 13.5665 100.332 13.3748 100.577C13.2305 100.76 13.0462 100.864 12.8229 100.887C12.5986 100.91 12.3743 100.868 12.151 100.761C11.6223 100.455 11.0546 100.214 10.4458 100.038C9.83707 99.8622 9.19671 99.7747 8.52476 99.7747C7.58002 99.7747 6.71533 99.9276 5.93173 100.234C5.14708 100.54 4.4667 100.979 3.89059 101.553C3.31448 102.127 2.86581 102.804 2.54563 103.584C2.22545 104.364 2.06536 105.222 2.06536 106.155C2.06536 107.164 2.23388 108.067 2.56985 108.862C2.90583 109.658 3.36609 110.335 3.95063 110.893C4.53516 111.452 5.21449 111.877 5.99176 112.167C6.76799 112.458 7.61267 112.603 8.52476 112.603C9.18091 112.603 9.81284 112.519 10.4216 112.35C11.0304 112.182 11.598 111.937 12.1268 111.616C12.3511 111.509 12.5786 111.471 12.8114 111.501C13.0431 111.533 13.2316 111.639 13.3759 111.822C13.5834 112.067 13.6603 112.324 13.6044 112.591C13.5486 112.859 13.3917 113.061 13.1358 113.199C12.7355 113.429 12.2795 113.635 11.7666 113.818C11.2536 114.002 10.7218 114.147 10.1699 114.254C9.618 114.361 9.06927 114.415 8.52476 114.415C7.37253 114.415 6.28351 114.224 5.25872 113.842C4.23394 113.459 3.32607 112.913 2.53299 112.201C1.74097 111.489 1.11957 110.626 0.671954 109.607C0.223282 108.59 0 107.439 0 106.154C0 104.976 0.21591 103.886 0.648783 102.884C1.0806 101.882 1.68094 101.014 2.44979 100.279C3.21864 99.5452 4.11914 98.9745 5.1513 98.5689C6.18345 98.1632 7.30829 97.9609 8.52476 97.9609C9.3568 97.9609 10.1657 98.0646 10.9503 98.2709C11.735 98.4773 12.4543 98.7782 13.1105 99.1768Z" fill="#2D2D2D"/>
<path d="M17.1197 114.186C16.8469 114.186 16.6194 114.094 16.4351 113.91C16.2508 113.727 16.1592 113.505 16.1592 113.245V103.262C16.1592 102.987 16.2508 102.761 16.4351 102.585C16.6194 102.409 16.8469 102.321 17.1197 102.321C17.4083 102.321 17.64 102.41 17.8159 102.585C17.9918 102.761 18.0803 102.987 18.0803 103.262V106.269L17.7917 105.787C17.8875 105.313 18.0592 104.85 18.3077 104.399C18.5563 103.948 18.8723 103.542 19.2567 103.183C19.6411 102.824 20.0814 102.541 20.5774 102.333C21.0735 102.127 21.618 102.023 22.2099 102.023C22.5617 102.023 22.8861 102.104 23.182 102.264C23.478 102.425 23.6265 102.65 23.6265 102.941C23.6265 103.262 23.538 103.504 23.3621 103.664C23.1863 103.825 22.9861 103.905 22.7618 103.905C22.5533 103.905 22.3532 103.858 22.1615 103.767C21.9698 103.675 21.7297 103.629 21.4411 103.629C21.0409 103.629 20.6448 103.735 20.252 103.95C19.8591 104.164 19.4989 104.458 19.1714 104.834C18.8428 105.209 18.5795 105.637 18.3794 106.119C18.1793 106.601 18.0792 107.117 18.0792 107.668V113.244C18.0792 113.505 17.9865 113.726 17.8033 113.909C17.6189 114.092 17.3904 114.185 17.1187 114.185L17.1197 114.186Z" fill="white"/>
<path d="M36.0191 102.207C36.2909 102.207 36.5194 102.295 36.7037 102.47C36.888 102.646 36.9797 102.864 36.9797 103.125V113.245C36.9797 113.506 36.887 113.727 36.7037 113.91C36.5194 114.093 36.2909 114.186 36.0191 114.186C35.7306 114.186 35.4946 114.094 35.3103 113.91C35.126 113.727 35.0344 113.505 35.0344 113.245V111.065L35.4904 111.019C35.4904 111.371 35.3704 111.741 35.1302 112.132C34.8901 112.522 34.5615 112.89 34.1455 113.234C33.7294 113.578 33.2407 113.861 32.6804 114.083C32.1201 114.305 31.5114 114.416 30.8552 114.416C29.7662 114.416 28.7856 114.145 27.9136 113.601C27.0404 113.059 26.3569 112.32 25.8608 111.387C25.3648 110.454 25.1162 109.39 25.1162 108.197C25.1162 107.005 25.3679 105.922 25.8724 104.996C26.3769 104.071 27.0573 103.343 27.9136 102.816C28.7698 102.288 29.7346 102.023 30.8068 102.023C31.4945 102.023 32.1359 102.131 32.7278 102.345C33.3197 102.559 33.8358 102.85 34.2771 103.216C34.7174 103.584 35.0575 103.989 35.2977 104.432C35.5378 104.876 35.6579 105.32 35.6579 105.763L35.0333 105.625V103.124C35.0333 102.864 35.125 102.645 35.3093 102.469C35.4936 102.293 35.7295 102.206 36.0181 102.206L36.0191 102.207ZM31.0722 112.718C31.8726 112.718 32.5772 112.519 33.1849 112.121C33.7926 111.723 34.2729 111.184 34.6257 110.503C34.9775 109.823 35.1544 109.054 35.1544 108.197C35.1544 107.341 34.9786 106.599 34.6257 105.926C34.274 105.252 33.7926 104.717 33.1849 104.319C32.5762 103.922 31.8726 103.722 31.0722 103.722C30.2717 103.722 29.5871 103.918 28.971 104.307C28.3549 104.698 27.8704 105.229 27.5186 105.902C27.1658 106.576 26.9899 107.341 26.9899 108.197C26.9899 109.054 27.1616 109.823 27.506 110.503C27.8504 111.185 28.3306 111.723 28.9468 112.121C29.5629 112.519 30.2717 112.718 31.0722 112.718Z" fill="white"/>
<path d="M46.3924 102.506C46.6483 102.506 46.8642 102.586 47.0412 102.747C47.217 102.908 47.3055 103.11 47.3055 103.354C47.3055 103.599 47.217 103.802 47.0412 103.962C46.8653 104.123 46.6483 104.203 46.3924 104.203H40.3648C40.1089 104.203 39.8919 104.122 39.716 103.962C39.5401 103.801 39.4517 103.599 39.4517 103.354C39.4517 103.095 39.5391 102.888 39.716 102.734C39.8919 102.581 40.1078 102.505 40.3648 102.505H46.3924V102.506ZM45.7204 97.251C45.9922 97.251 46.2765 97.2852 46.5725 97.3547C46.8684 97.4241 47.1244 97.5308 47.3413 97.6757C47.5572 97.8217 47.6657 98.024 47.6657 98.2837C47.6657 98.5283 47.5857 98.7316 47.4256 98.8916C47.2655 99.0526 47.0728 99.1322 46.8495 99.1322C46.7052 99.1322 46.5051 99.0939 46.2491 99.0174C45.9932 98.9409 45.7288 98.9027 45.4571 98.9027C45.0885 98.9027 44.7883 98.9792 44.5566 99.1322C44.3239 99.2851 44.1564 99.4885 44.0521 99.7401C43.9479 99.9927 43.8962 100.272 43.8962 100.577V113.245C43.8962 113.506 43.8036 113.727 43.6203 113.911C43.436 114.094 43.2074 114.186 42.9357 114.186C42.6471 114.186 42.4154 114.095 42.2395 113.911C42.0636 113.727 41.9752 113.505 41.9752 113.245V100.577C41.9752 99.568 42.3069 98.7608 42.9715 98.1569C43.6361 97.553 44.5524 97.25 45.7215 97.25L45.7204 97.251Z" fill="white"/>
<path d="M49.3222 102.387H54.9654C55.2213 102.387 55.4341 102.471 55.6015 102.639C55.7701 102.808 55.8533 103.015 55.8533 103.259C55.8533 103.489 55.769 103.684 55.6015 103.844C55.433 104.005 55.2213 104.085 54.9654 104.085H49.3222C49.0821 104.085 48.8694 104.001 48.6861 103.832C48.5018 103.664 48.4102 103.465 48.4102 103.235C48.4102 102.991 48.5018 102.787 48.6861 102.627C48.8704 102.466 49.0821 102.387 49.3222 102.387ZM51.8437 99.2656C52.1154 99.2656 52.3397 99.3572 52.5156 99.5414C52.6915 99.7246 52.78 99.947 52.78 100.207V111.268C52.78 111.636 52.8358 111.91 52.9485 112.094C53.0601 112.278 53.2086 112.404 53.3929 112.473C53.5772 112.542 53.7574 112.577 53.9332 112.577C54.0933 112.577 54.2334 112.55 54.3535 112.496C54.4735 112.443 54.6136 112.416 54.7737 112.416C54.9338 112.416 55.0812 112.488 55.2182 112.634C55.354 112.78 55.4225 112.966 55.4225 113.197C55.4225 113.471 55.254 113.705 54.918 113.896C54.582 114.087 54.205 114.183 53.7889 114.183C53.5646 114.183 53.2887 114.168 52.9601 114.137C52.6315 114.106 52.3071 114.007 51.9879 113.839C51.6678 113.671 51.3992 113.391 51.1833 113.001C50.9674 112.611 50.8589 112.064 50.8589 111.361V100.208C50.8589 99.948 50.9547 99.7256 51.1475 99.5424C51.3392 99.3592 51.5719 99.2666 51.8437 99.2666V99.2656Z" fill="white"/>
<path d="M59.84 114.189C59.5356 114.189 59.2912 114.097 59.108 113.913C58.9237 113.73 58.832 113.507 58.832 113.248V99.0661C58.832 98.8064 58.9279 98.584 59.1206 98.4008C59.3123 98.2176 59.5451 98.125 59.8168 98.125H68.2457C68.5174 98.125 68.7502 98.2136 68.9419 98.3887C69.1336 98.5648 69.2305 98.7822 69.2305 99.0429C69.2305 99.2724 69.1346 99.4757 68.9419 99.6509C68.7502 99.827 68.5174 99.9146 68.2457 99.9146H60.6815L60.8258 99.7314V105.331L60.7057 105.078H67.1651C67.4368 105.078 67.6696 105.166 67.8613 105.342C68.053 105.518 68.1499 105.735 68.1499 105.996C68.1499 106.24 68.054 106.448 67.8613 106.616C67.6696 106.785 67.4368 106.868 67.1651 106.868H60.6573L60.8258 106.685V113.249C60.8258 113.509 60.7299 113.731 60.5372 113.914C60.3455 114.097 60.1127 114.19 59.841 114.19L59.84 114.189Z" fill="#2D2D2D"/>
<path d="M83.853 108.219C83.853 109.413 83.577 110.476 83.0241 111.409C82.4722 112.342 81.7276 113.077 80.7912 113.612C79.8549 114.148 78.8017 114.415 77.6337 114.415C76.4657 114.415 75.4082 114.148 74.4635 113.612C73.5188 113.077 72.771 112.342 72.218 111.409C71.6662 110.476 71.3892 109.412 71.3892 108.219C71.3892 107.027 71.6651 105.963 72.218 105.03C72.7699 104.097 73.5188 103.362 74.4635 102.827C75.4082 102.291 76.4646 102.023 77.6337 102.023C78.8028 102.023 79.8549 102.291 80.7912 102.827C81.7276 103.362 82.4722 104.097 83.0241 105.03C83.576 105.963 83.853 107.027 83.853 108.219ZM81.9077 108.219C81.9077 107.333 81.7191 106.556 81.3431 105.89C80.9671 105.225 80.4542 104.697 79.8065 104.307C79.1577 103.917 78.4331 103.722 77.6337 103.722C76.8343 103.722 76.0844 103.918 75.4367 104.307C74.7879 104.698 74.2718 105.225 73.8874 105.89C73.503 106.556 73.3113 107.333 73.3113 108.219C73.3113 109.106 73.503 109.864 73.8874 110.537C74.2718 111.211 74.7879 111.742 75.4367 112.133C76.0855 112.523 76.8175 112.718 77.6337 112.718C78.4499 112.718 79.1588 112.522 79.8065 112.133C80.4553 111.742 80.9671 111.212 81.3431 110.537C81.7191 109.864 81.9077 109.092 81.9077 108.219Z" fill="white"/>
<path d="M98.5243 108.219C98.5243 109.413 98.2484 110.476 97.6955 111.409C97.1436 112.342 96.3989 113.077 95.4626 113.612C94.5263 114.148 93.4731 114.415 92.3051 114.415C91.1371 114.415 90.0796 114.148 89.1349 113.612C88.1902 113.077 87.4424 112.342 86.8894 111.409C86.3375 110.476 86.0605 109.412 86.0605 108.219C86.0605 107.027 86.3365 105.963 86.8894 105.03C87.4413 104.097 88.1902 103.362 89.1349 102.827C90.0796 102.291 91.136 102.023 92.3051 102.023C93.4742 102.023 94.5263 102.291 95.4626 102.827C96.3989 103.362 97.1436 104.097 97.6955 105.03C98.2473 105.963 98.5243 107.027 98.5243 108.219ZM96.579 108.219C96.579 107.333 96.3905 106.556 96.0145 105.89C95.6385 105.225 95.1256 104.697 94.4779 104.307C93.8291 103.917 93.1045 103.722 92.3051 103.722C91.5057 103.722 90.7558 103.918 90.1081 104.307C89.4593 104.698 88.9432 105.225 88.5588 105.89C88.1744 106.556 87.9827 107.333 87.9827 108.219C87.9827 109.106 88.1744 109.864 88.5588 110.537C88.9432 111.211 89.4593 111.742 90.1081 112.133C90.7558 112.523 91.4888 112.718 92.3051 112.718C93.1213 112.718 93.8301 112.522 94.4779 112.133C95.1256 111.742 95.6385 111.212 96.0145 110.537C96.3905 109.864 96.579 109.092 96.579 108.219Z" fill="white"/>
<path d="M111.636 97.2041C111.908 97.2041 112.136 97.2927 112.32 97.4678C112.505 97.644 112.596 97.8694 112.596 98.1452V113.245C112.596 113.505 112.504 113.727 112.32 113.91C112.136 114.093 111.908 114.186 111.636 114.186C111.347 114.186 111.111 114.094 110.927 113.91C110.743 113.727 110.651 113.504 110.651 113.245V111.065L111.107 110.927C111.107 111.279 110.991 111.657 110.759 112.063C110.526 112.469 110.198 112.851 109.774 113.211C109.349 113.57 108.857 113.861 108.297 114.082C107.737 114.304 107.128 114.415 106.472 114.415C105.383 114.415 104.407 114.148 103.542 113.612C102.677 113.077 101.993 112.342 101.489 111.409C100.985 110.476 100.733 109.412 100.733 108.219C100.733 107.027 100.985 105.94 101.489 105.007C101.994 104.074 102.674 103.343 103.53 102.815C104.387 102.288 105.351 102.023 106.423 102.023C107.095 102.023 107.724 102.131 108.309 102.344C108.893 102.559 109.409 102.85 109.858 103.216C110.306 103.583 110.654 103.989 110.903 104.432C111.15 104.876 111.275 105.32 111.275 105.762L110.65 105.625V98.1432C110.65 97.8835 110.742 97.6611 110.926 97.4779C111.11 97.2947 111.346 97.2031 111.635 97.2031L111.636 97.2041ZM106.689 112.717C107.489 112.717 108.194 112.522 108.802 112.133C109.41 111.742 109.89 111.208 110.242 110.526C110.594 109.846 110.771 109.077 110.771 108.22C110.771 107.364 110.595 106.595 110.242 105.914C109.89 105.234 109.409 104.699 108.802 104.308C108.193 103.918 107.489 103.723 106.689 103.723C105.888 103.723 105.204 103.919 104.588 104.308C103.972 104.699 103.487 105.234 103.135 105.914C102.782 106.596 102.607 107.364 102.607 108.22C102.607 109.077 102.782 109.823 103.135 110.504C103.487 111.185 103.972 111.724 104.588 112.121C105.204 112.52 105.904 112.718 106.689 112.718V112.717Z" fill="white"/>
<path d="M135.17 99.1768C135.441 99.3147 135.601 99.521 135.65 99.7968C135.698 100.073 135.626 100.332 135.434 100.577C135.29 100.76 135.105 100.864 134.882 100.887C134.658 100.91 134.433 100.868 134.21 100.761C133.681 100.455 133.114 100.214 132.505 100.038C131.896 99.8622 131.256 99.7747 130.584 99.7747C129.639 99.7747 128.774 99.9276 127.991 100.234C127.206 100.54 126.526 100.979 125.95 101.553C125.374 102.127 124.925 102.804 124.605 103.584C124.285 104.364 124.124 105.222 124.124 106.155C124.124 107.164 124.293 108.067 124.629 108.862C124.965 109.658 125.425 110.335 126.01 110.893C126.594 111.452 127.275 111.877 128.051 112.167C128.827 112.458 129.672 112.603 130.584 112.603C131.24 112.603 131.872 112.519 132.481 112.35C133.088 112.182 133.657 111.937 134.186 111.616C134.41 111.509 134.638 111.471 134.87 111.501C135.102 111.533 135.291 111.639 135.435 111.822C135.642 112.067 135.719 112.324 135.664 112.591C135.608 112.859 135.451 113.061 135.195 113.199C134.795 113.429 134.339 113.635 133.826 113.818C133.313 114.002 132.781 114.147 132.229 114.254C131.677 114.361 131.128 114.415 130.584 114.415C129.432 114.415 128.343 114.224 127.318 113.842C126.293 113.459 125.385 112.913 124.592 112.201C123.8 111.489 123.179 110.626 122.731 109.607C122.282 108.59 122.059 107.439 122.059 106.154C122.059 104.976 122.275 103.886 122.708 102.884C123.14 101.882 123.74 101.014 124.509 100.279C125.278 99.5452 126.178 98.9745 127.21 98.5689C128.243 98.1632 129.367 97.9609 130.584 97.9609C131.416 97.9609 132.225 98.0646 133.009 98.2709C133.794 98.4773 134.514 98.7792 135.171 99.1778L135.17 99.1768Z" fill="white"/>
<path d="M148.448 102.207C148.72 102.207 148.948 102.295 149.132 102.47C149.317 102.646 149.408 102.864 149.408 103.125V113.245C149.408 113.506 149.316 113.727 149.132 113.91C148.948 114.093 148.72 114.186 148.448 114.186C148.159 114.186 147.923 114.094 147.739 113.91C147.555 113.727 147.463 113.505 147.463 113.245V111.065L147.919 111.019C147.919 111.371 147.799 111.741 147.559 112.132C147.319 112.522 146.99 112.89 146.574 113.234C146.158 113.578 145.669 113.861 145.109 114.083C144.549 114.305 143.94 114.416 143.284 114.416C142.195 114.416 141.214 114.145 140.342 113.601C139.469 113.059 138.786 112.32 138.29 111.387C137.793 110.454 137.545 109.39 137.545 108.197C137.545 107.005 137.797 105.922 138.301 104.996C138.806 104.071 139.486 103.343 140.342 102.816C141.199 102.288 142.163 102.023 143.235 102.023C143.923 102.023 144.564 102.131 145.157 102.345C145.748 102.559 146.265 102.85 146.706 103.216C147.146 103.584 147.486 103.989 147.726 104.432C147.967 104.876 148.087 105.32 148.087 105.763L147.462 105.625V103.124C147.462 102.864 147.554 102.645 147.738 102.469C147.922 102.293 148.158 102.206 148.447 102.206L148.448 102.207ZM143.501 112.718C144.301 112.718 145.006 112.519 145.614 112.121C146.222 111.723 146.702 111.184 147.054 110.503C147.406 109.823 147.583 109.054 147.583 108.197C147.583 107.341 147.407 106.599 147.054 105.926C146.702 105.252 146.221 104.717 145.614 104.319C145.005 103.922 144.301 103.722 143.501 103.722C142.7 103.722 142.016 103.918 141.4 104.307C140.784 104.698 140.299 105.229 139.947 105.902C139.594 106.576 139.419 107.341 139.419 108.197C139.419 109.054 139.59 109.823 139.935 110.503C140.279 111.185 140.759 111.723 141.375 112.121C141.992 112.519 142.7 112.718 143.501 112.718Z" fill="white"/>
<path d="M152.482 102.387H158.125C158.381 102.387 158.594 102.471 158.761 102.639C158.93 102.808 159.013 103.015 159.013 103.259C159.013 103.489 158.929 103.684 158.761 103.844C158.593 104.005 158.381 104.085 158.125 104.085H152.482C152.242 104.085 152.029 104.001 151.846 103.832C151.661 103.664 151.57 103.465 151.57 103.235C151.57 102.991 151.661 102.787 151.846 102.627C152.03 102.466 152.242 102.387 152.482 102.387ZM155.003 99.2656C155.275 99.2656 155.499 99.3572 155.675 99.5414C155.851 99.7246 155.94 99.947 155.94 100.207V111.268C155.94 111.636 155.995 111.91 156.108 112.094C156.22 112.278 156.368 112.404 156.553 112.473C156.737 112.542 156.917 112.577 157.093 112.577C157.253 112.577 157.393 112.55 157.513 112.496C157.633 112.443 157.773 112.416 157.933 112.416C158.093 112.416 158.241 112.488 158.378 112.634C158.514 112.78 158.582 112.966 158.582 113.197C158.582 113.471 158.414 113.705 158.078 113.896C157.742 114.087 157.366 114.183 156.949 114.183C156.724 114.183 156.448 114.168 156.12 114.137C155.791 114.106 155.468 114.007 155.148 113.839C154.827 113.671 154.559 113.391 154.343 113.001C154.127 112.611 154.019 112.064 154.019 111.361V100.208C154.019 99.948 154.114 99.7256 154.307 99.5424C154.499 99.3592 154.732 99.2666 155.003 99.2666V99.2656Z" fill="white"/>
<path d="M167.419 114.415C166.122 114.415 164.993 114.156 164.033 113.635C163.072 113.115 162.327 112.4 161.8 111.49C161.271 110.58 161.008 109.528 161.008 108.334C161.008 107.004 161.284 105.867 161.837 104.926C162.389 103.985 163.109 103.266 163.998 102.769C164.887 102.272 165.826 102.023 166.819 102.023C167.556 102.023 168.268 102.153 168.956 102.414C169.644 102.675 170.253 103.056 170.782 103.561C171.31 104.067 171.734 104.663 172.054 105.352C172.374 106.04 172.542 106.82 172.558 107.693C172.558 107.938 172.463 108.141 172.27 108.301C172.078 108.462 171.854 108.542 171.598 108.542H162.113L161.681 106.958H170.902L170.517 107.279V106.774C170.469 106.147 170.257 105.608 169.881 105.157C169.505 104.706 169.048 104.358 168.512 104.112C167.976 103.867 167.411 103.745 166.819 103.745C166.339 103.745 165.863 103.829 165.39 103.997C164.918 104.166 164.494 104.426 164.118 104.777C163.742 105.129 163.438 105.588 163.206 106.154C162.973 106.72 162.857 107.401 162.857 108.196C162.857 109.084 163.046 109.864 163.422 110.537C163.798 111.211 164.322 111.742 164.994 112.133C165.666 112.523 166.451 112.718 167.347 112.718C167.907 112.718 168.395 112.649 168.812 112.511C169.228 112.373 169.584 112.201 169.881 111.995C170.177 111.789 170.429 111.578 170.637 111.364C170.845 111.226 171.053 111.157 171.262 111.157C171.486 111.157 171.678 111.234 171.838 111.387C171.998 111.54 172.078 111.724 172.078 111.937C172.078 112.198 171.95 112.435 171.694 112.649C171.229 113.123 170.617 113.537 169.857 113.888C169.097 114.239 168.285 114.415 167.42 114.415H167.419Z" fill="white"/>
<path d="M176.4 114.186C176.127 114.186 175.899 114.094 175.715 113.91C175.531 113.727 175.439 113.505 175.439 113.245V103.262C175.439 102.987 175.531 102.761 175.715 102.585C175.899 102.409 176.127 102.321 176.4 102.321C176.688 102.321 176.92 102.41 177.096 102.585C177.272 102.761 177.36 102.987 177.36 103.262V106.269L177.071 105.787C177.167 105.313 177.339 104.85 177.588 104.399C177.835 103.948 178.152 103.542 178.536 103.183C178.921 102.824 179.361 102.541 179.857 102.333C180.353 102.127 180.898 102.023 181.49 102.023C181.841 102.023 182.166 102.104 182.462 102.264C182.758 102.425 182.906 102.65 182.906 102.941C182.906 103.262 182.818 103.504 182.642 103.664C182.466 103.825 182.266 103.905 182.042 103.905C181.833 103.905 181.633 103.858 181.441 103.767C181.25 103.675 181.009 103.629 180.721 103.629C180.321 103.629 179.925 103.735 179.532 103.95C179.139 104.164 178.779 104.458 178.451 104.834C178.123 105.209 177.858 105.637 177.659 106.119C177.459 106.601 177.359 107.117 177.359 107.668V113.244C177.359 113.505 177.266 113.726 177.083 113.909C176.899 114.092 176.67 114.185 176.398 114.185L176.4 114.186Z" fill="white"/>
<path d="M185.932 100.602C185.532 100.602 185.236 100.525 185.043 100.372C184.852 100.219 184.755 99.9817 184.755 99.6606V99.3395C184.755 99.0184 184.859 98.7809 185.067 98.6279C185.274 98.4749 185.571 98.3984 185.956 98.3984C186.34 98.3984 186.628 98.4749 186.82 98.6279C187.012 98.7809 187.109 99.0184 187.109 99.3395V99.6606C187.109 99.9817 187.009 100.219 186.809 100.372C186.609 100.525 186.317 100.602 185.932 100.602ZM186.917 113.245C186.917 113.506 186.824 113.727 186.641 113.911C186.457 114.094 186.228 114.186 185.957 114.186C185.668 114.186 185.432 114.095 185.248 113.911C185.063 113.727 184.972 113.505 184.972 113.245V103.08C184.972 102.82 185.063 102.598 185.248 102.414C185.432 102.231 185.668 102.139 185.957 102.139C186.228 102.139 186.457 102.23 186.641 102.414C186.826 102.598 186.917 102.82 186.917 103.08V113.245Z" fill="white"/>
<path d="M196.546 102.023C197.634 102.023 198.492 102.238 199.116 102.666C199.741 103.094 200.185 103.668 200.449 104.387C200.713 105.106 200.845 105.917 200.845 106.819V113.245C200.845 113.506 200.752 113.727 200.569 113.91C200.384 114.093 200.156 114.186 199.884 114.186C199.596 114.186 199.364 114.094 199.188 113.91C199.012 113.727 198.924 113.505 198.924 113.245V106.866C198.924 106.285 198.831 105.757 198.648 105.282C198.463 104.808 198.156 104.43 197.723 104.146C197.291 103.863 196.714 103.721 195.994 103.721C195.322 103.721 194.704 103.863 194.144 104.146C193.584 104.429 193.135 104.808 192.799 105.282C192.463 105.757 192.295 106.285 192.295 106.866V113.245C192.295 113.506 192.202 113.727 192.019 113.91C191.834 114.093 191.606 114.186 191.334 114.186C191.062 114.186 190.834 114.094 190.649 113.91C190.465 113.727 190.374 113.505 190.374 113.245V103.262C190.374 102.987 190.465 102.761 190.649 102.585C190.834 102.409 191.061 102.321 191.334 102.321C191.623 102.321 191.854 102.41 192.03 102.585C192.206 102.761 192.295 102.987 192.295 103.262V104.869L191.814 105.374C191.894 104.977 192.079 104.575 192.366 104.169C192.655 103.764 193.015 103.4 193.447 103.079C193.879 102.758 194.359 102.502 194.888 102.31C195.416 102.119 195.968 102.023 196.544 102.023H196.546Z" fill="white"/>
<path d="M209.585 102.023C210.29 102.023 210.937 102.135 211.53 102.357C212.122 102.579 212.638 102.865 213.08 103.217C213.52 103.569 213.864 103.937 214.112 104.319C214.36 104.702 214.484 105.061 214.484 105.397L214.003 105.122V103.126C214.003 102.866 214.095 102.647 214.279 102.471C214.464 102.295 214.691 102.208 214.964 102.208C215.253 102.208 215.488 102.296 215.673 102.471C215.857 102.647 215.949 102.865 215.949 103.126V113.177C215.949 114.432 215.673 115.476 215.12 116.31C214.568 117.143 213.826 117.763 212.899 118.169C211.97 118.574 210.929 118.777 209.777 118.777C209.297 118.777 208.768 118.719 208.192 118.605C207.616 118.49 207.103 118.344 206.655 118.169C206.206 117.993 205.919 117.813 205.79 117.629C205.55 117.46 205.402 117.285 205.346 117.102C205.29 116.919 205.317 116.734 205.43 116.551C205.59 116.337 205.782 116.23 206.006 116.23C206.231 116.23 206.518 116.299 206.871 116.437C207.031 116.483 207.267 116.558 207.58 116.666C207.892 116.773 208.244 116.868 208.636 116.953C209.028 117.036 209.417 117.079 209.801 117.079C211.162 117.079 212.202 116.738 212.923 116.057C213.643 115.376 214.003 114.477 214.003 113.361V111.226L214.268 111.341C214.172 111.769 213.979 112.167 213.692 112.534C213.403 112.902 213.047 113.227 212.623 113.51C212.198 113.792 211.729 114.015 211.218 114.175C210.705 114.336 210.177 114.415 209.633 114.415C208.512 114.415 207.507 114.148 206.619 113.612C205.73 113.077 205.026 112.342 204.507 111.409C203.986 110.476 203.726 109.412 203.726 108.219C203.726 107.027 203.986 105.94 204.507 105.007C205.027 104.074 205.727 103.343 206.608 102.816C207.488 102.288 208.48 102.023 209.585 102.023ZM209.849 103.721C209.033 103.721 208.3 103.917 207.652 104.306C207.004 104.697 206.5 105.232 206.14 105.913C205.78 106.594 205.6 107.362 205.6 108.218C205.6 109.075 205.78 109.821 206.14 110.502C206.5 111.184 207.005 111.722 207.652 112.12C208.301 112.518 209.033 112.717 209.849 112.717C210.666 112.717 211.418 112.521 212.059 112.132C212.7 111.741 213.204 111.211 213.572 110.536C213.94 109.863 214.123 109.091 214.123 108.218C214.123 107.346 213.939 106.57 213.572 105.889C213.203 105.209 212.698 104.678 212.059 104.294C211.419 103.912 210.683 103.72 209.849 103.72V103.721Z" fill="white"/>
</svg>
